<svg width="1000" height="500" viewBox="0 0 1000 500" fill="none" xmlns="http://www.w3.org/2000/svg">
<g clip-path="url(#clip0_5_28)">
<rect width="1000" height="500" fill="white"/>
<path d="M228.351 263.712C228.351 336.693 695.851 384.775 438.865 613.753C-189.705 1103.43 -32.5623 562.068 -8.09703 275.4C-217.934 26.0309 34.1082 -195.487 419.907 -73.4664C602.662 250.705 181.303 187.489 228.351 263.712Z" fill="#E8DCB9" fill-opacity="0.3"/>
<path d="M813.725 559.112C1049.23 1195.71 717.187 786.582 598.102 786.582C134.741 874.195 329.719 731.359 329.719 605.731C192.852 76.0388 458 149.5 639 318C967 -12.5 1283.97 489.183 813.725 559.112Z" fill="#5493B6" fill-opacity="0.3"/>
<path d="M758.758 -209.584C833.319 -130.337 1089.52 -258.166 1048.06 -78.014C1093.43 118.782 878.072 463.099 768.51 142.478C364.637 205.416 320.475 -78.399 652.009 -241.011C746.472 -329.887 684.198 -288.832 758.758 -209.584Z" fill="#F2CEE6" fill-opacity="0.2"/>
</g>
<defs>
<clipPath id="clip0_5_28">
<rect width="1000" height="500" fill="white"/>
</clipPath>
</defs>
</svg>
